<svg width="44" height="43" viewBox="0 0 44 43" fill="none" xmlns="http://www.w3.org/2000/svg">
<g opacity="0.7">
<path d="M22.0726 1.00195C26.3993 1.00195 27.8832 1.01557 29.307 1.06641L30.8138 1.13086C34.5888 1.30399 37.46 2.43587 39.4291 4.40625C41.2751 6.25354 42.3818 8.8912 42.6527 12.3184L42.6957 13.0137V13.0146C42.7979 15.2697 42.8226 15.9836 42.8226 21.752C42.8226 26.0784 42.809 27.5624 42.7582 28.9854L42.6937 30.4912C42.5232 34.2661 41.3918 37.1358 39.4213 39.1045C37.5738 40.9502 34.9355 42.0572 31.5082 42.3311L30.8119 42.375C28.5567 42.4772 27.8411 42.502 22.0726 42.502C17.7466 42.502 16.2634 42.4876 14.8402 42.4375L13.3334 42.375C9.55813 42.2019 6.68873 41.071 4.72009 39.1016C2.87454 37.2551 1.76734 34.6179 1.49353 31.1875L1.44958 30.4912C1.3474 28.236 1.32263 27.5204 1.32263 21.752C1.32263 17.4257 1.33627 15.9427 1.38708 14.5195L1.45154 13.0127C1.62464 9.23757 2.75464 6.36804 4.724 4.39941C6.5705 2.5537 9.20845 1.44664 12.639 1.17285L13.3353 1.12891C15.5904 1.02672 16.3043 1.00195 22.0726 1.00195ZM22.0726 3.83203C17.816 3.83203 16.3692 3.84381 14.9613 3.89258L13.4633 3.95508C10.5125 4.08925 8.25873 4.85967 6.71326 6.41211C5.2648 7.8671 4.50817 9.93858 4.30798 12.6016L4.27576 13.1426C4.17431 15.3957 4.15076 16.0758 4.15076 21.752C4.15076 26.0106 4.16274 27.4577 4.21228 28.8652L4.27576 30.3613C4.40989 33.2805 5.1654 35.5343 6.70935 37.0879C8.15734 38.5447 10.2289 39.3156 12.9174 39.5176L13.4633 39.5508C15.7148 39.654 16.3971 39.6748 22.0726 39.6748C26.3326 39.6748 27.779 39.6628 29.1869 39.6133L30.684 39.5508C33.6349 39.4166 35.8886 38.6446 37.434 37.0918C38.8822 35.6364 39.6381 33.5649 39.8383 30.9033L39.8715 30.3633C39.9729 28.1118 39.9945 27.4314 39.9945 21.7539C39.9945 17.4977 39.983 16.0495 39.934 14.6416L39.8715 13.1445C39.7373 10.2187 38.978 7.96482 37.432 6.41309C35.9824 4.95816 33.9111 4.19016 31.2289 3.98926L30.684 3.95703C28.4305 3.85379 27.7484 3.83203 22.0726 3.83203Z" fill="white" stroke="#473590"/>
<g clip-path="url(#clip0_51_449)">
<path d="M19.2651 14.3726L19.2573 14.3306C19.1953 13.974 18.9165 11.8182 20.7954 9.93896L20.9839 9.75732C22.8938 8.00047 25.3308 7.85693 26.0376 7.85693C26.129 7.85694 26.1885 7.85879 26.2104 7.85986L26.2222 7.86084H30.5376C30.5545 7.86084 30.5686 7.8743 30.5688 7.89111V12.9097C30.5686 12.9264 30.5544 12.9399 30.5376 12.9399H27.4155C26.7955 12.9399 26.2374 13.0879 25.8345 13.4673C25.4263 13.8518 25.2622 14.3934 25.2622 14.9966V18.9233H30.5376L30.561 18.9341L30.5679 18.9575L29.939 24.4233V24.4243C29.937 24.4396 29.9231 24.4507 29.9077 24.4507H25.2622V39.729C25.2622 39.746 25.248 39.7603 25.231 39.7603H19.1157C19.0988 39.7602 19.0854 39.746 19.0854 39.729V24.3813H14.978C14.9613 24.3811 14.9478 24.3671 14.9478 24.3501V18.9536C14.9479 18.9368 14.9613 18.9236 14.978 18.9233H19.2651V14.3726Z" fill="white" stroke="#473590"/>
</g>
</g>
<defs>
<clipPath id="clip0_51_449">
<rect width="32.9032" height="32.9032" fill="white" transform="translate(6.30652 7.35693)"/>
</clipPath>
</defs>
</svg>
