<svg width="42" height="43" viewBox="0 0 42 43" fill="none" xmlns="http://www.w3.org/2000/svg">
<path d="M21 0.501953C25.2754 0.501953 26.7418 0.51597 28.1484 0.567383L29.6367 0.631836H29.6377C33.3642 0.806833 36.1983 1.9515 38.1436 3.94434C39.9686 5.81414 41.0641 8.48495 41.332 11.9561L41.374 12.6602V12.6611C41.475 14.9431 41.5 15.6657 41.5 21.502C41.5 25.8797 41.4858 27.3812 41.4355 28.8213L41.373 30.3447C41.2044 34.168 40.0839 37.0738 38.1357 39.0664C36.3105 40.9333 33.706 42.0524 30.3223 42.3291L29.6357 42.373C27.4074 42.4764 26.7006 42.502 21 42.502C16.7243 42.502 15.259 42.4882 13.8525 42.4375L12.3643 42.373C8.63766 42.1981 5.80511 41.0562 3.86035 39.0645C2.03579 37.1956 0.939945 34.5248 0.668945 31.0508L0.625977 30.3447C0.524974 28.0626 0.5 27.3383 0.5 21.502C0.5 17.1244 0.514215 15.6238 0.564453 14.1836L0.626953 12.6592C0.798191 8.83555 1.91717 5.92912 3.86426 3.93652C5.68833 2.06996 8.29238 0.951508 11.6787 0.674805L12.3662 0.630859C14.5944 0.527489 15.2996 0.501953 21 0.501953ZM21 3.37695C16.7933 3.37695 15.3633 3.38913 13.9717 3.43848L12.4912 3.50195C9.57166 3.63786 7.3417 4.41863 5.81348 5.99023C4.38308 7.46129 3.63608 9.55406 3.43848 12.2451L3.40625 12.792C3.30602 15.0712 3.2832 15.7591 3.2832 21.502C3.2832 25.8105 3.29578 27.2744 3.34473 28.6982L3.40625 30.2119C3.53865 33.1621 4.28483 35.439 5.80957 37.0098C7.24143 38.4846 9.29105 39.2661 11.9512 39.4707L12.4912 39.5039C14.7166 39.6084 15.3912 39.6299 21 39.6299C25.2091 39.6299 26.6389 39.6185 28.0303 39.5684L29.5107 39.5039C32.4305 39.368 34.6603 38.5858 36.1885 37.0137C37.6188 35.5422 38.3659 33.4495 38.5635 30.7598L38.5957 30.2139C38.6959 27.9362 38.7168 27.2481 38.7168 21.5039C38.7168 17.1968 38.7057 15.732 38.6572 14.3076L38.5957 12.7939C38.4633 9.83715 37.7133 7.56013 36.1865 5.99121C34.7531 4.5183 32.7037 3.73966 30.0498 3.53613L29.5107 3.50293C27.2835 3.39846 26.6089 3.37695 21 3.37695ZM21 10.9619C26.6681 10.9619 31.2832 15.6699 31.2832 21.502C31.2832 27.3359 26.668 32.0439 21 32.0439C15.332 32.0439 10.7168 27.3341 10.7168 21.502C10.7168 15.6699 15.3319 10.9619 21 10.9619ZM21 13.835C16.8471 13.835 13.5 17.2792 13.5 21.502C13.5 25.7266 16.8472 29.1689 21 29.1689C25.1528 29.1689 28.5 25.7266 28.5 21.502C28.5 17.2792 25.1529 13.835 21 13.835ZM32.2109 7.94629C33.3144 7.94653 34.2285 8.86667 34.2285 10.0264C34.2285 11.186 33.3144 12.1062 32.2109 12.1064C31.1049 12.1064 30.1885 11.1855 30.1885 10.0264C30.1885 8.86721 31.1049 7.94629 32.2109 7.94629Z" fill="white" fill-opacity="0.7" stroke="#473590"/>
</svg>
