<svg width="43" height="43" viewBox="0 0 43 43" fill="none" xmlns="http://www.w3.org/2000/svg">
<g opacity="0.7">
<path d="M21.4064 1.00195C25.6298 1.00195 27.0783 1.01543 28.4679 1.06543L29.9386 1.12891C33.6208 1.29909 36.4201 2.41152 38.34 4.34766C40.1402 6.16327 41.2201 8.75668 41.4845 12.1279L41.5265 12.8125C41.6263 15.0314 41.6505 15.7336 41.6505 21.4092C41.6505 25.6654 41.6376 27.1256 41.588 28.5254L41.5255 30.0068V30.0078C41.3591 33.7213 40.2539 36.5426 38.3322 38.4775C36.5308 40.2912 33.9585 41.3793 30.6154 41.6484L29.9366 41.6914C27.7355 41.7919 27.0372 41.8164 21.4064 41.8164C17.1831 41.8164 15.735 41.8032 14.3458 41.7539L12.8751 41.6914C9.19277 41.5212 6.39505 40.4098 4.47571 38.4746C2.67595 36.6598 1.59552 34.0668 1.32825 30.6924L1.28528 30.0068C1.18554 27.7885 1.16125 27.0842 1.16125 21.4092C1.16125 17.1521 1.17511 15.6933 1.22473 14.293L1.28723 12.8115C1.45619 9.09767 2.55903 6.27573 4.47961 4.34082C6.2798 2.52731 8.85158 1.43913 12.1974 1.16992L12.8771 1.12695C15.0783 1.02643 15.7752 1.00195 21.4064 1.00195ZM21.4064 3.77051C17.2506 3.77051 15.8377 3.78208 14.463 3.83008L13.0011 3.8916H13.0001C10.1173 4.02377 7.91385 4.78254 6.40247 6.3125C4.9865 7.74599 4.24732 9.78579 4.05188 12.4062L4.02063 12.9385C3.92159 15.1554 3.89856 15.8246 3.89856 21.4092C3.89856 25.5985 3.91076 27.0225 3.95911 28.4072L4.02063 29.8799C4.15158 32.7522 4.88926 34.9714 6.39856 36.502C7.81462 37.9378 9.84007 38.6975 12.4669 38.8965L13.0001 38.9287C15.1987 39.0303 15.8654 39.0518 21.4064 39.0518C25.5639 39.0518 26.9764 39.0399 28.3507 38.9912L29.8136 38.9287C32.6967 38.7965 34.8999 38.0364 36.4113 36.5059C37.8271 35.0721 38.5663 33.0329 38.7618 30.4141L38.7931 29.8818C38.8921 27.6665 38.9132 26.997 38.9132 21.4111C38.9132 17.2232 38.9025 15.7984 38.8546 14.4131L38.7931 12.9404C38.6621 10.0616 37.9215 7.84227 36.4103 6.31348C34.9926 4.87935 32.9668 4.12268 30.3458 3.9248L29.8136 3.89258C27.6133 3.79099 26.947 3.77051 21.4064 3.77051Z" fill="white" stroke="#473590"/>
<path d="M14.4943 20.7451V37.4512H9.44934V20.7451H14.4943Z" fill="white" stroke="#473590"/>
<path d="M11.9735 12.3628C13.5874 12.3628 14.9082 13.6876 14.9081 15.3228L14.9042 15.4751C14.8252 17.0403 13.5368 18.2837 11.9735 18.2837C10.3581 18.2836 9.03703 16.9585 9.03699 15.3228C9.03699 13.688 10.3579 12.3629 11.9735 12.3628Z" fill="white" stroke="#473590"/>
<path d="M27.8231 20.3267C30.6125 20.3267 32.0944 21.3282 32.9198 22.7388C33.7779 24.2051 33.9803 26.199 33.9803 28.2808V37.4517H28.9452V29.3315C28.9452 28.2017 28.9092 27.0851 28.5565 26.2505C28.3728 25.8159 28.0951 25.4357 27.6786 25.1694C27.2647 24.9048 26.757 24.7808 26.1591 24.7808C25.0878 24.7808 24.2245 25.0888 23.6669 25.895C23.1429 26.6526 22.9559 27.7622 22.9559 29.187V37.4517H17.9227V20.7456H22.7469V23.0542L23.6171 22.0991C24.4695 21.1633 25.8856 20.3267 27.8231 20.3267Z" fill="white" stroke="#473590"/>
</g>
</svg>
