<svg width="52" height="55" viewBox="0 0 52 55" fill="none" xmlns="http://www.w3.org/2000/svg">
<path d="M21.7684 0.977867C22.7076 0.838294 23.6641 1.0728 24.4322 1.63098C25.2004 2.18916 25.7188 3.02644 25.8762 3.96284C26.0335 4.89924 25.8171 5.85998 25.2736 6.63855C24.7301 7.41711 23.9028 7.95133 22.9695 8.12637C18.7475 8.84236 14.9154 11.0301 12.1524 14.3018C9.38944 17.5735 7.8741 21.7178 7.875 26C7.875 30.8071 9.78459 35.4172 13.1837 38.8163C16.5828 42.2154 21.193 44.125 26 44.125V51.375C11.9858 51.375 0.625 40.0167 0.625 26C0.625 13.5663 9.6295 3.01753 21.7684 0.977867Z" fill="url(#paint0_linear_260_3)"/>
<path d="M37.8223 7.38682C38.1402 7.03217 38.5249 6.74364 38.9544 6.53772C39.3838 6.33181 39.8496 6.21253 40.3252 6.18672C40.8008 6.16091 41.2768 6.22907 41.726 6.38731C42.1752 6.54554 42.5888 6.79074 42.9432 7.10891C45.5991 9.48698 47.7229 12.3989 49.1759 15.6543C50.6289 18.9097 51.3782 22.4351 51.375 26C51.375 40.0167 40.0142 51.375 26 51.375V44.125C29.6689 44.125 33.2514 43.0117 36.274 40.9321C39.2965 38.8524 41.6168 35.9045 42.9281 32.478C44.2394 29.0514 44.4799 25.3076 43.6179 21.7414C42.7558 18.1752 40.8319 14.9546 38.1003 12.5053C37.3847 11.8634 36.9535 10.9635 36.9014 10.0036C36.8492 9.04375 37.1805 8.10247 37.8223 7.38682Z" fill="url(#paint1_linear_260_3)"/>
<defs>
<linearGradient id="paint0_linear_260_3" x1="1269.37" y1="266.79" x2="1269.37" y2="4630.66" gradientUnits="userSpaceOnUse">
<stop stop-color="#473590"/>
<stop offset="1" stop-color="#473590" stop-opacity="0.55"/>
</linearGradient>
<linearGradient id="paint1_linear_260_3" x1="1294.75" y1="694.932" x2="1294.75" y2="3944.8" gradientUnits="userSpaceOnUse">
<stop stop-color="#473590" stop-opacity="0"/>
<stop offset="1" stop-color="#473590" stop-opacity="0.55"/>
</linearGradient>
</defs>
</svg>
