<?xml version="1.0" encoding="UTF-8"?>
<!DOCTYPE svg PUBLIC "-//W3C//DTD SVG 1.1//EN" "http://www.w3.org/Graphics/SVG/1.1/DTD/svg11.dtd">
<!-- Creator: CorelDRAW 2020 (64 Bit) -->
<svg xmlns="http://www.w3.org/2000/svg" xml:space="preserve" width="416.39mm" height="77.3852mm" version="1.1" style="shape-rendering:geometricPrecision; text-rendering:geometricPrecision; image-rendering:optimizeQuality; fill-rule:evenodd; clip-rule:evenodd"
viewBox="0 0 42240.28 7850.26"
 xmlns:xlink="http://www.w3.org/1999/xlink"
 xmlns:xodm="http://www.corel.com/coreldraw/odm/2003">
 <defs>
  <style type="text/css">
   <![CDATA[
    .fil0 {fill:white}
   ]]>
  </style>
 </defs>
 <g id="Camada_x0020_1">
  <metadata id="CorelCorpID_0Corel-Layer"/>
  <g id="_2334851102400">
   <path class="fil0" d="M-0 94.47l0 7678.48c0,41.54 27.17,68.71 68.71,68.71l532.52 0c17.89,0 36.21,-19.59 45.17,-32.12 30.2,-42.17 14.94,-179.89 14.94,-234.13l0 -1657.66c0,-270.31 -40.55,-138.85 242.47,-418.87 18.81,-18.61 23.15,-19.83 42.24,-35.06l473.2 -437.23c30.61,-26.94 51.11,-55.58 82.53,-80.66 89.09,-71.07 174.17,-160.65 261.03,-237.13l476.88 -442.13c17.87,-17.89 24.84,-27.45 44.96,-40.93 37.42,9.99 250.29,234.45 298.53,276.93l420.8 395.15c117.97,117.99 243.33,224.86 360.69,343.59l120.28 111.62c117.98,117.99 243.34,224.87 360.69,343.6l837.85 794.04c26.13,21.85 35.07,26.89 59.77,51.88l300.75 283.3c40.69,39.17 78.28,84.78 120.45,120.03 101.27,84.65 202.84,185.42 295.89,279.57l244.87 227.53c22.02,22.28 37.99,38 60.08,60.17l176.05 167.51c25.76,26.07 38.57,33.12 64.39,55.86 34,29.95 83.12,105.15 135.34,105.15l798.77 0c71.61,0 103.11,-87.72 20.9,-149.72 -48.76,-36.77 -87.48,-84.38 -130.27,-127.39 -26.09,-26.22 -43.46,-34.55 -69.01,-59.83 -88.72,-87.78 -172.9,-165.92 -261.62,-253.71l-399.63 -373.36c-45.44,-45.96 -81.79,-85.28 -132.18,-125.49l-661.34 -626.99c-45.06,-35.94 -85.61,-87.38 -129.59,-128.07l-459.61 -433.63c-27.56,-27.73 -38.66,-35.7 -68.33,-60.5 -46.55,-38.91 -83.45,-88.02 -129.28,-128.39 -27.44,-24.16 -41.5,-32.76 -68.67,-60.17l-463.4 -438.44c-46.55,-38.91 -83.45,-88.02 -129.29,-128.38 -27.43,-24.16 -41.5,-32.77 -68.66,-60.18l-858.87 -815.96c-40.72,-40.73 -99.35,-79.46 -130.98,-126.68l1844.64 -1702.58c158.12,-156.45 332.36,-297.77 489.27,-455.5 25.07,-25.2 40.25,-31.99 64.72,-55.53l244.62 -227.76c99.56,-100.61 211.8,-189.54 313.65,-287.57 199.5,-192.02 412.51,-372.32 609.47,-567.2l250.72 -230.26c177.34,-136.93 91.23,-201.17 30.74,-201.17l-790.19 0c-61.28,0 -232.26,188.01 -298.07,243.03l-566.87 523.92c-15.22,12.72 -25.01,24.09 -39.05,38.26 -14.15,14.28 -23.94,25.58 -38.71,38.59l-730.09 669.88c-109.11,100.93 -212.58,206.39 -325.89,301.11l-279.51 261.59c-30.14,30.46 -53.25,44.59 -81.78,72.83 -28.36,28.06 -48.69,51.98 -79.28,75.32 -30.59,23.33 -50.91,47.25 -79.28,75.32l-326.53 300.46c-103.83,104.94 -218.3,191.34 -322.11,296.28l-405.82 375.79c-66.83,51 -135.23,127.39 -199.58,186.91l-1176.73 1082.16c-80.87,71.22 -157.68,165.6 -247,225.4l0 -4534.95c0,-287.22 60.12,-231.9 -584.04,-231.9 -42.45,0 -77.3,34.86 -77.3,77.3z"/>
   <path class="fil0" d="M8545.97 94.47l0 446.63c0,96.51 59.04,94.88 154.57,94.51l2739.9 -0.03c549.33,0 1086.53,-59.26 1591.44,160.69 238.87,104.06 413.85,222.39 600.77,395.55 55.2,51.15 139.49,128.86 188.19,189.72 229.12,286.22 381.15,532.97 457.55,916.68 74.87,375.98 69.93,754.66 -68.62,1098.11 -139.66,346.19 -280.36,523.32 -542.62,788.66 -134.8,136.38 -403.07,316.79 -566.57,386.81 -193.15,82.71 -371.28,139.8 -588.96,166.85 -329.45,40.96 -1123.21,11.03 -1500.63,11.03 -795.91,0 -1591.81,0 -2387.72,0 -52.72,0 -77.3,40.88 -77.3,94.47l0 2920.23c0,33.54 32.78,77.3 60.13,77.3l532.51 0c41.54,0 68.71,-27.17 68.71,-68.71l0 -2396.31 2808.58 0c27.89,0 42.63,39.81 56.51,63.74 159.79,275.45 354.52,591.72 504.42,861.22l641.08 1093.87c30.89,53.99 61.84,101.78 91.96,157.12l136.53 232.8c18.11,31.27 27.15,56.27 72.55,56.27l652.75 0c30.08,0 87.38,-39.6 25.44,-145.67l-824.64 -1417.07c-160.91,-281.22 -406.74,-675.87 -549.26,-945.21 343.39,-80 538.34,-121.34 867,-318.27 62.33,-37.34 115.46,-72.4 175.89,-116.12 164.79,-119.21 342.86,-270.95 467.49,-425.76 12.14,-15.07 20.22,-20.52 33.04,-35.66 70.26,-82.93 170.87,-212.3 223.15,-300.78 19.61,-33.19 36.14,-57.07 56,-90.02 132.2,-219.44 237.45,-503.43 286.73,-752.52 48.98,-247.54 55.1,-388.86 55.1,-649.19 0,-1046.77 -583.99,-1931.02 -1511.52,-2387.85 -131.47,-64.75 -345.41,-140.81 -483.21,-169.54 -181.89,-37.93 -364.31,-70.82 -581.94,-70.82l-3787.71 0c-42.45,0 -77.3,34.86 -77.3,77.3z"/>
   <path class="fil0" d="M16035.5 7781.55c0,28.72 31.72,68.71 60.13,68.71l584.04 0c71.28,0 87.77,-90.55 125.16,-184.04l638.12 -1569.24c61.4,-149.96 124.16,-291.8 183.94,-443.05l321 -769.79c18.37,-41.18 31.7,-72.82 48.33,-114.86 30.84,-78.03 61.55,-147.41 93.17,-224.62l93.57 -224.22c93.08,-210.53 181.6,-450.5 274.84,-661.35 32.27,-72.97 61.76,-150.78 94.03,-223.75 31.85,-72.03 59.58,-143.17 91.08,-218.12l557.05 -1341.1c137.64,-346.32 297.13,-707.68 439.15,-1055.32 10.64,-26.04 10.6,-34.63 29.51,-56.38 12.67,54.39 478.04,1149.74 549.69,1331.28 227.76,577.11 508.09,1194.68 736.2,1771.76 113.81,287.92 254.42,603.43 370.45,892.12l460.15 1111.62c32.88,78.23 61.8,145.25 93.29,224.5l679.68 1673.68c16.35,42.05 27.2,80.89 82.29,80.89l592.64 0c101.31,0 72.33,-93.3 47.92,-150.98l-229.6 -552c-32.5,-80.73 -66.16,-169.17 -101.98,-250.17l-613.26 -1482.43c-66.94,-167.96 -136.94,-325.65 -203.77,-491.92 -132.21,-328.94 -275.55,-662.56 -409.82,-990.17l-1528.65 -3702c-40.72,-101.16 -67.4,-213.41 -138.73,-213.41l-764.41 0c-57.46,0 -68.57,46.48 -85.71,86.08 -17.06,39.39 -35.23,83.7 -50.58,121.2 -163.37,398.91 -347.83,820.33 -504.16,1213.63l-201.5 485.61c-138.08,312.25 -268.09,663.91 -403.68,970.54l-1922.55 4622.19c-20.37,49.72 -87.03,209.44 -87.03,265.12z"/>
   <path class="fil0" d="M26625.64 7850.26l781.58 0c52.1,0 102.56,-157.15 126.4,-217.16l703.06 -1701.83c66.22,-166.15 136.48,-322.98 201.23,-485.89 16.32,-41.06 34.65,-83.02 50.38,-121.39 17.52,-42.75 30.55,-79.25 49.74,-122.05 124.22,-277.05 277.02,-675.88 401.65,-972.57 160.45,-381.99 339.72,-845.85 502.9,-1214.89 35.56,-80.39 63.46,-160.89 100.36,-243.19 37.13,-82.81 63.2,-160.38 100.34,-243.22l200.74 -486.38c65.87,-165.44 135.6,-321.21 201.24,-485.87l402.23 -971.99c35.61,-80.52 63.41,-160.79 100.36,-243.19 16.62,-37.06 97.41,-227.49 97.41,-254.74 0,-33.93 -39,-68.72 -77.3,-68.72l-601.22 0c-14.16,0 -40.31,19.09 -47.96,29.35l-703.01 1727.65c-205.68,515.87 -441.13,1043.74 -644.17,1554.59 -261.77,658.62 -572.3,1345.93 -831.84,2002.5 -172.26,435.81 -378.42,891.86 -552.1,1328.86l-138.74 333.65c-15.71,36.4 -34.12,94.72 -53.95,109.24l-456.53 -1106.65c-29.01,-72.19 -61.09,-152.83 -92.93,-224.85l-690.96 -1662.4c-262,-623.72 -522.31,-1273.29 -788.97,-1890.77 -92.93,-215.2 -183.74,-456.22 -278.09,-666.68 -102.3,-228.16 -262.7,-646.67 -361.2,-892.79 -31.59,-78.94 -59.22,-148.03 -90.82,-226.97 -31.3,-78.2 -61.09,-152.72 -90.78,-227 -15.18,-37.99 -28.48,-74.47 -44.24,-110.36 -13.8,-31.39 -23.49,-57.81 -50.79,-69.46 -42.73,-18.23 -517.13,-7.91 -601.9,-7.91 -118.54,0 -58.89,149.74 -33.21,222.17 14.03,39.58 34.24,80.7 50.41,121.37l153.27 370.66c33.32,82.92 68.77,167.96 104.15,247.99l203.92 491.79c33.8,85.53 66.52,164.35 103.1,249.04l307.88 739.96c33.83,85.12 66.67,157.42 100.64,242.91l103.55 248.59c97.28,216.99 215.21,515.3 307.41,740.44l766.91 1844.13c187.24,445.72 376.84,921.02 565.66,1358.25l203.72 491.98c16.17,40.97 34.27,81.89 50.21,121.56l104.14 248.01c18.7,42.84 25.31,94.23 86.14,94.23z"/>
   <path class="fil0" d="M35042.77 7850.26l575.45 0c66.48,0 82.25,-89.57 121.48,-187.73l451.52 -1120.25c30.89,-77.2 58.58,-144.25 89.48,-219.72l462.9 -1108.87c188.36,-425.96 369.61,-903.14 555.64,-1333.92l1246.49 -2996.43c13.53,-33.67 41.21,-82.26 44.26,-118.93 18.77,13.75 18.82,23.88 28.42,48.88l900.49 2165.75c59.15,147.17 123.54,291.4 183.97,443.03 232.98,584.49 506.64,1194.36 738.59,1777.96 60.08,151.16 125.3,293.92 184.1,442.89 114.99,291.35 254.59,604.57 369.34,893.23 59.25,149.08 120.24,300.42 179.12,447.86l316.53 782.85c16.64,42.45 23.72,83.4 79.8,83.4l609.81 0c28.4,0 60.13,-39.99 60.13,-68.71 0,-28.1 -169.46,-432.55 -195.14,-491.98l-754.61 -1822.06c-18.71,-44.53 -30.07,-78.95 -49.49,-122.28 -115.9,-258.51 -292.71,-705.75 -401.88,-972.34 -66.16,-161.55 -139.15,-329.83 -203.78,-491.92 -33.49,-84.02 -66.59,-157.56 -100.62,-242.94l-1108.01 -2679.69c-69.33,-164.99 -130.4,-326.63 -200.95,-486.16l-99.56 -244c-34.82,-87.33 -67.81,-210.99 -141.16,-210.99l-773 0c-46.65,0 -67.35,69.04 -77.3,94.47 -16.06,41.03 -34.44,81.69 -50.3,121.48 -33.97,85.21 -69.96,167 -102.99,249.17 -66.66,165.85 -138.58,323.51 -205.01,490.68 -177.65,447.09 -379.93,900.79 -559.4,1347.34 -17.13,42.63 -34.83,86.03 -53.08,127.3l-819.34 1972.04c-69.92,166.44 -133.53,325.46 -204.93,490.79 -35.46,82.12 -68.89,162.41 -100.65,242.9l-103.29 248.85c-35.91,81.2 -66.83,167.14 -103.07,249.09 -35.39,80.02 -70.84,165.07 -104.16,247.98 -65.41,162.77 -137.77,328.93 -203.5,492.21 -66.74,165.78 -138.93,323.5 -205.01,490.69l-279.73 673.64c-27.24,68.78 -138.81,294.46 2.44,294.46z"/>
   <path class="fil0" d="M32723.76 111.66l0 7635.53c0,41.33 23.56,94.47 60.12,94.47l532.52 0c41.54,0 68.71,-27.17 68.71,-68.71l0 -7704.25c0,-41.54 -27.17,-68.71 -68.71,-68.71l-515.34 0c-61.25,0 -77.3,49.9 -77.3,111.66z"/>
  </g>
 </g>
</svg>
