<svg width="41" height="41" viewBox="0 0 41 41" fill="none" xmlns="http://www.w3.org/2000/svg">
<path d="M20.7764 0.501953C31.2402 0.502066 39.75 9.26808 39.75 20.1152C39.7498 30.9622 31.24 39.7274 20.7764 39.7275C17.3521 39.7275 14.1357 38.789 11.3594 37.1455L11.1689 37.0322L10.958 37.0977L2.61328 39.6699H2.6123C2.17857 39.8036 1.71017 39.7018 1.36426 39.4014L1.22461 39.2607H1.22363C0.914063 38.9023 0.802489 38.4058 0.920898 37.9453L0.986328 37.751L4.18359 30.0225L4.27441 29.8047L4.16309 29.5957C2.65916 26.7854 1.8028 23.5522 1.80273 20.1152C1.80273 9.26801 10.3125 0.501953 20.7764 0.501953ZM20.7764 3.33301C11.7787 3.33301 4.51172 10.8622 4.51172 20.1152C4.51179 23.1539 5.29376 26.0008 6.66113 28.458L6.94238 28.9443C7.14951 29.2891 7.20314 29.7084 7.09473 30.0947L7.03809 30.2588L5.02734 35.1172L4.62109 36.0996L5.63672 35.7861L10.9766 34.1406C11.3012 34.0406 11.6493 34.0707 11.9521 34.2246L12.0781 34.2979C14.592 35.9429 17.574 36.8965 20.7764 36.8965C29.7738 36.8964 37.0408 29.3679 37.041 20.1152C37.041 10.8623 29.774 3.33312 20.7764 3.33301ZM14.377 11.04L14.5273 11.0605C14.8783 11.1273 15.1914 11.3365 15.3965 11.6445L15.4775 11.7822L17.4512 15.6133C17.7381 16.1704 17.6339 16.8483 17.2168 17.2842L17.1289 17.3682L15.5801 18.7266L15.2764 18.9932L15.4736 19.3457C16.1191 20.5007 16.9655 21.7472 18.0713 22.9746L18.5615 23.5C19.8603 24.8413 21.1586 25.8058 22.3369 26.499L22.6191 26.666L22.8848 26.4727L25.3223 24.6992C25.7029 24.4226 26.1872 24.3716 26.6074 24.5508L26.7832 24.6416L29.8955 26.5566C30.2273 26.7608 30.4616 27.1042 30.5371 27.5L30.5596 27.6719C30.5885 28.0812 30.4463 28.4772 30.1797 28.7637L30.0586 28.8789L28.9609 29.8027C28.0396 30.578 26.7867 31.0636 25.4688 30.8115L25.2051 30.751C23.3371 30.2542 20.1528 28.9916 16.9658 25.8252L16.6572 25.5127C13.789 22.5502 12.2969 19.4031 11.5459 17.2598L11.4062 16.8447C10.8274 15.0732 11.4402 13.3054 12.5801 12.1348L12.8154 11.9082L13.4004 11.3809C13.6733 11.1349 14.0251 11.015 14.377 11.04Z" fill="white" stroke="#473590"/>
</svg>
