<svg width="22" height="18" viewBox="0 0 22 18" fill="none" xmlns="http://www.w3.org/2000/svg">
<path d="M11 17.5C12.81 17.5 14.545 17.321 16.153 16.993C18.163 16.583 19.167 16.379 20.083 15.201C21 14.022 21 12.669 21 9.96301V8.03701C21 5.33101 21 3.97701 20.083 2.79901C19.167 1.62101 18.163 1.41601 16.153 1.00701C14.4565 0.666964 12.7303 0.497122 11 0.500006C9.19 0.500006 7.455 0.679006 5.847 1.00701C3.837 1.41701 2.833 1.62101 1.917 2.79901C1 3.97801 1 5.33101 1 8.03701V9.96301C1 12.669 1 14.023 1.917 15.201C2.833 16.379 3.837 16.584 5.847 16.993C7.455 17.321 9.19 17.5 11 17.5Z" stroke="white" stroke-linecap="round" stroke-linejoin="round"/>
<path d="M14.962 9.31301C14.814 9.91901 14.024 10.353 12.445 11.224C10.727 12.171 9.868 12.644 9.173 12.461C8.94139 12.4012 8.72501 12.2932 8.538 12.144C8 11.709 8 10.806 8 9.00001C8 7.19401 8 6.29101 8.538 5.85601C8.72 5.70901 8.938 5.60001 9.173 5.53901C9.868 5.35601 10.727 5.82901 12.445 6.77601C14.025 7.64601 14.814 8.08101 14.962 8.68701C15.012 8.89301 15.012 9.10701 14.962 9.31301Z" stroke="white" stroke-linecap="round" stroke-linejoin="round"/>
</svg>
